<svg xmlns="http://www.w3.org/2000/svg" viewBox="0 0 98.26 80.87"><defs><style>.cls-1{fill:rgb(253,18,22);}</style></defs><title>Tâche 13</title><g id="Calque_2" data-name="Calque 2"><g id="Calque_1-2" data-name="Calque 1"><path class="cls-1" d="M70.39,0C72,0,73.24,1.46,73.52,3.71a3.81,3.81,0,0,1-2.26,3.54c-2,.52-3.89-1.35-4-3.95C67.17,1,68.11,0,70.39,0Z"/><path class="cls-1" d="M6.91,44.73A2.85,2.85,0,0,1,4,47.49a1.65,1.65,0,0,1-1.73-1.86A3,3,0,0,1,5,42.93,1.78,1.78,0,0,1,6.91,44.73Z"/><path class="cls-1" d="M96,47.17c1.52,0,2,.6,1.94,1.74a3.16,3.16,0,0,1-3,2.56c-1.21,0-1.48-.79-1.54-1.67C93.26,48.52,94.9,47.15,96,47.17Z"/><path class="cls-1" d="M1.5,56.07C.28,56.16.05,55.24,0,54.39c-.08-1.54,1.33-3.25,2.56-3.25s1.52.87,1.62,1.7C4.33,54.06,2.55,56.05,1.5,56.07Z"/><path class="cls-1" d="M58.69,64.66c1-.27,1.21.6,1.52,1.12A4.79,4.79,0,0,1,61,68.85c-.08.67.36,1.62-.44,1.93s-1.07-.91-1.26-1.27c-.77-1.49-1.49-3.13-.57-4.88Z"/><path class="cls-1" d="M88.28,58.74c-1.72-.25-.47-1.88-1.12-2.69-.21-.26.29-1.07,1.11-1,1.25.14,2.07.77,2,2S89.48,58.78,88.28,58.74Z"/><path class="cls-1" d="M14.85,46.15c.43.19,1.09-.31,1.25.43s-.41.75-.82,1a5.63,5.63,0,0,1-2.89,1.26c-.27,0-.58.5-.81,0a1,1,0,0,1,.12-1.08A4.58,4.58,0,0,1,14.85,46.15Z"/><path class="cls-1" d="M10.19,37.89c.15,1.27-.74,1.79-1.7,1.92a1.13,1.13,0,0,1-1.26-1.17,1.91,1.91,0,0,1,1.73-2A1,1,0,0,1,10.19,37.89Z"/><path class="cls-1" d="M76.83,12.22c-.3,1-.52,2-1.92,2-.78,0-1.1-.38-1-1.12s1.46-2.21,2.19-2.06A.9.9,0,0,1,76.83,12.22Z"/><path class="cls-1" d="M98.26,34.53a1.15,1.15,0,0,1-1.23,1c-.53,0-1.23-.24-1.06-1.08.14-.63.29-1.24,1.19-1.19C97.89,33.34,98.3,33.59,98.26,34.53Z"/><path class="cls-1" d="M85.79,25.3c.24-.76.62-1.58-.16-2a1.84,1.84,0,0,0-2.46.65A26.83,26.83,0,0,0,80,29c-.6,1.49-1.21,3-1.9,4.42-.17.35-.46,1.24-1.11.56a5.11,5.11,0,0,0-2-1.24c-.85-.29-.88-.87-.68-1.56.81-2.67.82-2.68-1.7-3.42,0,0,0,0,0,0l-.08.05a2,2,0,0,1-2,.88,2.76,2.76,0,0,1,2-.92.1.1,0,0,0,.05,0h0c0-.25.23-.27.43-.34A7.49,7.49,0,0,0,76.64,25c.56-.72,1-1.71.09-2.5a2,2,0,0,0-2.81,0c-.46.38-1,.71-1.4,1.09-2,1.72-4.91,1.38-6.71,3.42.43-.91,1.26-1.26,2-1.75,1.3-.89,2.58-1.78,2.93-3.5.26-1.25-.24-2-1.5-2a3.09,3.09,0,0,0-2.62,1.64c-.91,1.29-1.54,2.83-3.11,3.7a4.06,4.06,0,0,1,.82-3.87,39.69,39.69,0,0,1,4.47-4.79,7.73,7.73,0,0,0,2-3.43,3.06,3.06,0,0,0-1.36-3.4c-.64-.46-1.33-1-2.35-.48-1.25.66-1.1,1.72-1.14,2.79-.14,3.57-2.26,5.8-5.1,7.54-.22.14-.43.43-.7.18s-.14-.49,0-.77c.33-.9,1-1.63,1.32-2.56s.32-1.77-.47-2.07a1.55,1.55,0,0,0-2.28,1.14,23.31,23.31,0,0,0-.67,2.8c-.1,1.11-1.93,3.15-2.54,2.85-1.19-.59-1.32-1.8-1.41-3a19.38,19.38,0,0,1,1.09-6.68c.63-2.33,1.46-4.64.26-7a2,2,0,0,0-3-1.16,3.65,3.65,0,0,0-2,2.42C49.58,8,49.88,10.5,49.76,13a10.84,10.84,0,0,1-1.58,6c-.4.58-.78.88-1.55.57a7.77,7.77,0,0,0-2.05-.41c-2.1-.2-2.7-2.21-2.3-3.74a11.92,11.92,0,0,0,.19-3.89c-.08-1.07-.28-2.36-1.94-2.28a2.59,2.59,0,0,0-2.31,2.48A6.57,6.57,0,0,0,39,14.82c.43,1.06-.08,1.43-.85,1.65-2,.55-2.3,1.15-1.49,3.09a2.57,2.57,0,0,1-1.51,3.53c-2.24.85-4.86-.23-6.48-2.35-1.24-1.61-1.78-3.65-3.83-4.83a10.69,10.69,0,0,1-4.09-4.58A10.15,10.15,0,0,0,18.55,8.5a2.93,2.93,0,0,0-3.68-.38,2.33,2.33,0,0,0-1.06,3,11.67,11.67,0,0,0,5.9,7c3.5,1.81,5.64,4.84,7.58,8.08a4.61,4.61,0,0,1-1.85-1.89,2.11,2.11,0,0,0-2.26-1.11c-1.05.18-1.33,1.15-1.37,2A2.47,2.47,0,0,0,23,27.48a22.93,22.93,0,0,1,4.22,3.57c.68.62,1.22,1.1.26,1.8-1.53-.41-2.39-1.66-3.46-2.66s-2.62-1.18-3.33-.31S20.45,32.1,21.79,33c.71.47,1.43.92,2.34,1.5-.92.14-1.47.4-1.41,1.31A1.42,1.42,0,0,0,24,37.28a7.91,7.91,0,0,0,.9.3c1,.11,2.52-.43,1.88,1.64-.13.44.65.33.78.7s1.07.14.68,1a1.05,1.05,0,0,1-1.47.59c-2-.72-3.95-.1-5.87.4a2.28,2.28,0,0,0-2,2.38c.05.81,2,1.23,3.19.75a2.63,2.63,0,0,0,.82-.49,3.26,3.26,0,0,1,1.79-.65c.59-.09,1.57-.31,1.62.57a1.62,1.62,0,0,1-1.45,1.69,11.61,11.61,0,0,1-1.32,0,9.67,9.67,0,0,0-1.32,0,2,2,0,0,0-1.68,1.55c-.14.5-.29,1.18.26,1.51a2.21,2.21,0,0,0,2.17-.06c1-.47,2-.82,3-1.23a1.91,1.91,0,0,1-.84,2.31,22.43,22.43,0,0,0-2.6,2.2,1.75,1.75,0,0,0-.37,2c.17.58.86.23,1.32.29a2.79,2.79,0,0,0,2.45-1,1.14,1.14,0,0,1,1.69-.15c.61.52.44,1.06.06,1.73-.94,1.64-2.51,2.45-4,3.45s-2.79,1.91-2.92,3.8c-.09,1.41.48,1.74,1.8,1.16a9,9,0,0,0,3.13-2.55c1.3-1.49,2.69-2.38,4.66-1.27a1,1,0,0,0,1.07-.08.55.55,0,0,1,.75,0,.69.69,0,0,1-.07.89l-.74,1c-1.27,1.79-3.18,3.12-3.77,5.38-.15.58-1,1.09-.32,1.72a1.81,1.81,0,0,0,2.12.06c2-.93,2.2-2.94,2.84-4.63a5,5,0,0,1,2.2-2.7,3.91,3.91,0,0,1,0,2c-.42,2.32-1.79,4.24-2.57,6.41-.37,1-.47,1.92.53,2.37s1.62-.35,2.12-1.09a3.13,3.13,0,0,0,.37-1c.24-1.1.36-2.23.7-3.29s1.21-1,2-.34a2.31,2.31,0,0,1,.94,2.21c-.06.9.42.87,1,.5.25-.15.4-.56.81-.31.45.41-1.06,1.61.48,1.46a2.46,2.46,0,0,0,2.3-1.76,1.77,1.77,0,0,1,1-1.39c0,.85,0,1.58,0,2.32,0,.34-.17.82.43.88a1,1,0,0,0,1.13-.47,2.92,2.92,0,0,0,.42-1.54c0-.92,0-1.85,0-2.81.88.26.6.9.66,1.41a23.4,23.4,0,0,1-.3,3.55c0,.88.17,1.74,1.35,1.86s1.43-.68,1.55-1.48.49-1.33.13-2.18c-.29-.7,0-2,.85-2.15.64-.15,1.09.76,1.42,1.51.75,1.7.37,3.34.08,5a8.72,8.72,0,0,0,.9,6,3,3,0,0,0,3.12,1.59c1.14-.12,1.58-.9,2-1.72a2.69,2.69,0,0,0-.59-3c-2.43-2.54-3-5.74-3.5-9-.11-.68,1.36-2.72,1.81-2.47a3.8,3.8,0,0,0,3.1,0,3.46,3.46,0,0,0,.22-.74c.06-.92,0-1.82,1.45-1.26.65.25.89-.44,1.11-1,.3-.68-.16-1.13-.56-1.51a8.1,8.1,0,0,0-1.27-.69c-.58-.37-.11-.78,0-1.12.32-.66.63-.15.86.08.5.5,1,1,1.43,1.57,1.24,1.42,2,3.18,3.36,4.54.89.92,1.88.61,2.78.29s.87-1.32.78-2.13a3.19,3.19,0,0,0-1.36-2q-2-1.66-3.9-3.48c-.36-.35-1-.84-.42-1.51,1.57-1.93,3.71-1.85,5,.13a1.6,1.6,0,0,0,1.92.79c.9-.28,1.09-.89,1-1.76s-.62-1.29-.85-2c1-.35,1.22.32,1.5,1,.41,1,1,1.94,2.19,1.84A6.39,6.39,0,0,1,80.3,59a2.18,2.18,0,0,0,2.43,1,2.13,2.13,0,0,0,1.59-1.89A4.4,4.4,0,0,0,83.21,55a17.68,17.68,0,0,0-5.37-3.55c-1.08-.56-2.25-1-2.83-2.27a1.67,1.67,0,0,1,.37-1.94c.49-.54,1.16-.35,1.73.07a3.73,3.73,0,0,0,1.08.69,3.12,3.12,0,0,0,3.2-.6,1.35,1.35,0,0,0,.29-1.66A2.71,2.71,0,0,0,79,44.2c-.38,0-.77,0-1.15,0a1.27,1.27,0,0,1-1.29-.84c-.21-.49.32-.69.73-.89a2.3,2.3,0,0,0,1.07-1.39A1.83,1.83,0,0,1,80,39.79,10.33,10.33,0,0,0,82.89,39a3.89,3.89,0,0,0,1.79-4.9c-.44-1.35-1.5-1.83-3.45-1.52A5.14,5.14,0,0,1,82,31.24C83.24,29.25,85,27.62,85.79,25.3Z"/><path class="cls-1" d="M58.72,64.63h0v0Z"/></g></g></svg>
