<svg xmlns="http://www.w3.org/2000/svg" viewBox="0 0 74.64 81.84"><defs><style>.cls-1{fill:#7940ff;}</style></defs><title>Tâche 02</title><g id="Calque_2" data-name="Calque 2"><g id="Calque_1-2" data-name="Calque 1"><path class="cls-1" d="M16.6,33.74c-1.21.15-2.62.89-3.11-.29s1-1.58,1.84-2.09,1.5-1.55,2.56-2c.58-.25.06-.73-.16-1-.43-.5-1.06-1-.66-1.69.3-.55,1-.29,1.51-.24,1.49.18,1.81-.56,1.71-1.84a3.24,3.24,0,0,0-1.12-2.1c-2.83-2.82-5.62-5.67-8.48-8.45C9.6,13,8.58,12,6.63,12.47c-1.74.45-3.12-1.11-4.36-2.13-.86-.71-1-2.12-2-3A1.81,1.81,0,0,1,.56,5.08a1.92,1.92,0,0,1,2.27-.22c3,1.2,4.91,3.52,6.92,5.91a108.23,108.23,0,0,0,7.89,7.85c.16.17.5.16.75.22,1.71.39,3.55.39,4.92,1.81a1,1,0,0,0,1.47-.23,2.09,2.09,0,0,0,.69-2.05,10.78,10.78,0,0,0-.51-1c-.23-.57-.82-1.24.06-1.69a1.31,1.31,0,0,1,1.82.58c.39.74.66.64,1.38.37a2,2,0,0,1,2.28.4c.65.72.87.28,1-.42a5.29,5.29,0,0,0-.42-2.22c-.25-.93-1.09-2.17-.76-2.71,1.19-1.94-.35-3.08-.82-4.59a9.08,9.08,0,0,1,.11-5.91C30,0,31-.11,32,.07s1.18,1,1.1,1.9c-.17,1.92.08,3.63,1.74,5a3.28,3.28,0,0,1,.92,2.7,22.22,22.22,0,0,0,.3,5.21,3.18,3.18,0,0,0,2.68,2.63,3.29,3.29,0,0,0,3.28-2.57,3.43,3.43,0,0,1,.11-.64,1.37,1.37,0,0,1,1.58-1.08c1,.1.92.73.94,1.42.07,1.9.53,2.17,2.15,1.13a17.23,17.23,0,0,0,2.26-1.85c1.53-1.41,2.79-3.12,4.6-4.19,1-.6,2.17-.93,3.17,0s.69,2.1-.07,3c-1.75,2.17-2.68,4.94-5,6.7A1.6,1.6,0,0,0,51,21.19c.24.73,1,.88,1.75.95,1.85.17,2.07.64,1.26,2.4-.22.46-.7.92-.3,1.5a1.91,1.91,0,0,1-.26,2.82c2.5.67,4.54-.47,6.65-.95a3.89,3.89,0,0,1,2.1-.1,12.64,12.64,0,0,0,8.9-.42c1.09-.42,2.24-.74,3.1.42,1.07,1.42,0,3.54-2,3.86a2.9,2.9,0,0,1-1.63,0c-2.32-1.16-4.75-.59-7.15-.61a7.65,7.65,0,0,0-3.66.6,6.66,6.66,0,0,1-4.49.22,2.67,2.67,0,0,0-2.64.61L53.8,33c.94.4,1.18,1.58.3,1.88-1.5.5-.68,1.24-.31,1.79A4.82,4.82,0,0,1,54.88,40c-.48,3.65,1.45,6,4.19,7.86a6.07,6.07,0,0,0,3.72,1.38c.58,0,1,.22,1,.83.06,2,1.5,2.41,3,2.79,1.91.49,4,.17,5.7,1.54,1.34,1.07,2.18,2.77,1.7,4a3.41,3.41,0,0,1-3.74,2A7.25,7.25,0,0,1,65,56.79a12.62,12.62,0,0,0-5.56-5.31c-1.92-.9-3.16-2.64-4.84-3.83a4.82,4.82,0,0,0-2.82-1.07,18.38,18.38,0,0,1-5.11-.88c-2.47-.64-3.41-.05-4,2.49a3.74,3.74,0,0,1-3.34,3.26c-1.7.23-2.55-.9-3.23-2.23-.17-.34-.45-.62-.64-.94-.41-.73-1.06-1.76-1.66-1.58-.83.25-.89,1.45-1,2.36-.32,2.57-.24,5.2-1,7.72-.1.36-.11.81-.34,1.06-2.73,3-1.63,7-2.82,10.41-.47,1.32,0,2.94-.15,4.42a23.76,23.76,0,0,1-1.7,7.7,2.19,2.19,0,0,1-2.46,1.45c-1.14-.11-1.56-.84-1.81-1.94-.6-2.6.06-5.09.86-7.44,1.23-3.62,1.82-7.45,3.67-10.87a2.94,2.94,0,0,0-.36-3.13c-1.85-2.3-1.35-4.52.12-6.74a13.74,13.74,0,0,0,2.3-4.06c.4-1.58-.05-1.86-1.61-1.84a10.34,10.34,0,0,0-5.64,1.74,1,1,0,0,1-.16.05c-.77.42-2,.57-2.25,0-.42-.81.26-1.75,1.13-2.21.7-.37,1.27-.79.93-1.62-.43-1-1.21-.37-1.82-.21-1.34.38-2.77.41-4,1.22-.31.2-1,.34-1.3-.23a1.06,1.06,0,0,1,.41-1.32,30.45,30.45,0,0,0,2.69-2.07c1.14-1.1,1-1.76-.47-2.17-1.2-.34-1.57-.7-1.14-2A24.21,24.21,0,0,0,16.6,33.74Z"/><path class="cls-1" d="M7.17,42.25c1.27-.25,2,.59,2.16,1.75.23,1.41-2.08,3.44-3.68,3.55s-2-.75-2-1.93A3.34,3.34,0,0,1,7.17,42.25Z"/><path class="cls-1" d="M31.27,73.59c-1.44.12-1.92-.86-2.06-2A2.76,2.76,0,0,1,31.38,69a2.51,2.51,0,0,1,2.4,2.11A2.36,2.36,0,0,1,31.27,73.59Z"/><path class="cls-1" d="M22.48,67.63c-.3,1.29-.35,2.44-1.85,2.71-1.28.22-2.21-.36-2-1.6a17.44,17.44,0,0,1,1-3A1.33,1.33,0,0,1,21,65a1.17,1.17,0,0,1,1.12.81C22.37,66.47,22.23,67.2,22.48,67.63Z"/><path class="cls-1" d="M15,37.29c0,1.41-1,3-1.85,2.85a1.74,1.74,0,0,1-1.41-1.6C11.6,37.74,13.15,36,14,36S15,36.29,15,37.29Z"/></g></g></svg>
