<svg xmlns="http://www.w3.org/2000/svg" viewBox="0 0 91.33 74.14"><defs><style>.cls-1{fill:#7940ff;}</style></defs><title>Tâche 05</title><g id="Calque_2" data-name="Calque 2"><g id="Calque_1-2" data-name="Calque 1"><path class="cls-1" d="M54.73,4.17c.26,1.48-.49,3-.79,4.59a1.84,1.84,0,0,0,1.76,2.43c1.74.13,3.3.34,4.24,2.3s2.25,1.71,3.44-.55c.78-1.48,1.62-2.81,3.44-3.18,1-.22,2.07-.58,2.94.18s.47,2,.38,3a5.14,5.14,0,0,1-.79,2.28c-1.44,2.12-1.61,4.59-2.06,7-.53,2.81,1.45,4.55,4.27,3.92,2-.45,4.07-1.33,6.14-.08.63.38,1.58.44,1.42,1.51s-1,1.29-1.77,1.46c-1.84.39-3.7.7-5.56,1-.37.06-.84-.06-1,.36s.28.72.57.86c1,.46.31.83,0,1.17s-.94.73-1.4,1.1c-2.89,2.35-1.7,4.68.69,6.75.53.45,1.18.77,1.7,1.24,1.34,1.21,1.23,2.32-.41,3-1.23.51-1.34.82-.13,1.47,2,1.05,3.91,2.1,5.81,3.24a5,5,0,0,1,2.21,4c.22,2-1.32,3.08-3.48,2.46a12.57,12.57,0,0,1-6.37-4.86c-1.18-1.53-2.64-1.9-3.58-.46-1.42,2.21-3.57,2.81-5.84,3.38-4.47,1.11-4.14,2.39-4.75,5.56-.16.82-.14,1.7-1,2s-1.47-.35-2.12-.88c-1.05-.85-1.18-2.06-1.46-3.19a4.4,4.4,0,0,0-.68-1.62,1.19,1.19,0,0,0-1.3-.5c-.51.11-.66.47-.72,1a4.55,4.55,0,0,1-.33,1.24,2,2,0,0,1-2.18,1.36,1.87,1.87,0,0,1-1.72-1.7,4.06,4.06,0,0,0-.37-1.57c-.66-1.1-1.54-1.1-2.15,0-.3.57-.5,1.19-.76,1.78A2.84,2.84,0,0,1,37.14,59c-1.16-.45-1.73-2.22-1.26-3.79a10.22,10.22,0,0,1,1.9-3.56c.23-.28.88-.67.51-1.2s-1-.37-1.52-.21c-1.23.38-2.46.82-3.66,1.29-2.07.81-3.38.64-4.55-.66a2,2,0,0,1-.36-2.75c.54-.81.94-1.71,1.54-2.47A3.59,3.59,0,0,0,30,41.25c-1.49-2.75-2.52-3.3-5.55-2.58-2.13.51-3.46-.1-3.69-1.68a3.68,3.68,0,0,1,3-3.7,4.08,4.08,0,0,0,1.13-.12c.5-.24,1.36-.39,1.06-1.18s-.87-.26-1.39-.14c-1.93.48-3-.15-3.87-2-.56-1.17-.15-1.69.94-1.79a10.71,10.71,0,0,1,2.94.09c1.9.35,3.06-.53,2.91-2.44-.06-.75-.34-1.47-.44-2.22-.42-2.91.39-4.36,3.35-6a13.77,13.77,0,0,0,2.89-2.1c1.23-1.2,2-1.18,2.85.29.66,1.12,1,.76,1.67.12,1.69-1.66,1.89-2.91.57-4.89A30.44,30.44,0,0,1,36.55,7.8,5.17,5.17,0,0,1,38,1.69a2.62,2.62,0,0,1,4,.78,7.86,7.86,0,0,1,1.25,4.81,3.14,3.14,0,0,0,.3,1.91c.4.72.78.72,1.64.61,3.22-.41,3.16-2.77,3.33-5.06A5.66,5.66,0,0,1,49.8,1,2.74,2.74,0,0,1,53,.22a2.34,2.34,0,0,1,1.72,2.43C54.74,3.09,54.73,3.53,54.73,4.17Z"/><path class="cls-1" d="M23.05,69c-.19,2.24-1.4,4.63-3.41,4.56S16.41,72,17.2,70c.51-1.24,3.63-3.28,4.88-3C23.08,67.21,23.14,68.12,23.05,69Z"/><path class="cls-1" d="M2.81,38.56c-1.68,0-2.93-.91-2.8-2.19A4.12,4.12,0,0,1,4,33a2.55,2.55,0,0,1,2.29,2.82C6.23,37.49,4.92,38.55,2.81,38.56Z"/><path class="cls-1" d="M22.48,22.06c-1.76,0-2.71-.86-2.72-2.46s1.52-2.81,3.5-2.81c1.79,0,2.47.63,2.44,2.24A3,3,0,0,1,22.48,22.06Z"/><path class="cls-1" d="M42.19,64.08a3.11,3.11,0,0,1,3.34-2.76c1.27,0,2.92,1.39,2.88,2.4,0,1.26-1.89,2.88-3.26,2.87A2.72,2.72,0,0,1,42.19,64.08Z"/><path class="cls-1" d="M14.55,33.94h.75c1,0,2.19-.1,2.45,1.25A2.25,2.25,0,0,1,16,37.75a5,5,0,0,1-4.84-.66c-.8-.6-.76-1-.24-1.7A3.89,3.89,0,0,1,14.55,33.94Z"/><path class="cls-1" d="M55.05,71.6A3.08,3.08,0,0,1,52,74.14c-1-.06-2.06-.47-2.16-1.75s2.14-3,3.52-2.76C54.3,69.78,55.19,70.32,55.05,71.6Z"/><path class="cls-1" d="M80,37.89A1.77,1.77,0,0,1,78.23,36c.09-1,.46-2.24,2-2,1.06.14,2.06.49,2.17,1.73A2.47,2.47,0,0,1,80,37.89Z"/><path class="cls-1" d="M84.43,52c-.05.82-.45,1.43-1.17,1.38s-1.8-.25-1.71-1.28c.06-.66.12-1.69,1.37-1.65S84.16,51.27,84.43,52Z"/><path class="cls-1" d="M63.68,7.35c-.33.73-.73,1.39-1.57,1.49s-1-.64-1.11-1.28c-.2-1,.57-1.32,1.22-1.35A1.61,1.61,0,0,1,63.68,7.35Z"/><path class="cls-1" d="M89.89,49.45c.76,0,1.49,0,1.44,1,0,1.2-1,.92-1.68.93s-1.33.26-1.29-.86S89.1,49.42,89.89,49.45Z"/></g></g></svg>
