<svg xmlns="http://www.w3.org/2000/svg" viewBox="0 0 86.91 80.82"><defs><style>.cls-1{fill:linear-gradient(68deg, #a940ff, #7940ff);}</style></defs><title>Tâche 08</title><g id="Calque_2" data-name="Calque 2"><g id="Calque_1-2" data-name="Calque 1"><path class="cls-1" d="M54.58,18.81a15,15,0,0,0,3.68-2,4.58,4.58,0,0,1,2.68-1c.86,0,1.55.22,1.73,1.13a1.44,1.44,0,0,1-1.13,1.87,2.85,2.85,0,0,0-1,.43c-.66.48-1.44,1.12-1.34,1.92s.82,1.13,1.66,1.35,1.69.88.93,2.05a1.07,1.07,0,0,0,0,1.33c1,1.1,1.92,2.51,3.33,3.1A2.88,2.88,0,0,1,67,31.68a4.93,4.93,0,0,0,1.6,3.81c.83.7.54,1.91.14,2.88s-.9,2-1.41,2.93a3.59,3.59,0,0,0,.25,4.35,2.78,2.78,0,0,1,.29.57c1.23,2.36,1.2,2.47-1.07,3.8a6.45,6.45,0,0,0,2.9.81c.94,0,1.07.5.63,1.28a4.37,4.37,0,0,1-2.84,2,10.44,10.44,0,0,0-2.9,1.37,2.75,2.75,0,0,0-.76,3.89c.59,1,1.15,1.95.64,3.33s-1.21,1.16-2,.82c-2-.82-3.23-.72-4.72.75a15,15,0,0,0-2.86,3.14,1.44,1.44,0,0,1-.69.69c-2.26.62-3.92,2.56-6.32,2.84-.51,0-.77.08-1,.7-.58,1.34-1.89,1.36-2.92.17-.07-.08-.13-.23-.21-.24-2.11-.32-4.22-.69-6.35-.88-.51,0-.49.88-.65,1.34a2.1,2.1,0,0,1-1.93,1.47c-.79.06-1.27-.62-1.64-1.35a2.28,2.28,0,0,0-3.56-.76,15.63,15.63,0,0,1-2.4,1.32c-1.33.58-2,.2-2.35-1.22-.12-.52-.29-1-.37-1.57-.33-2.37-2.12-3.3-4.31-2.3-.56-.37-.06-1-.49-1.59-.5.8-1,1.55-1.44,2.31A2.61,2.61,0,0,1,17,69.37c-.7.34-1.53.49-2,0s0-1.26.43-1.77a5.32,5.32,0,0,0,1.46-4,3.88,3.88,0,0,0-2.5-3.48c-1.41-.58-2.68,0-3.82,1.67-.19.26-.44.49-.66.74-.62.7-1.46,1.31-2.21.52s-.21-1.83.59-2.49a6.26,6.26,0,0,1,1.42-.77,3.4,3.4,0,0,0,2.2-3.72,4.88,4.88,0,0,0-3-3.6c-.5-.13-1.21,0-1.25-.71s.65-.68,1.06-.88c1.4-.68,2.31-1.28,1.1-3.08-1-1.44.15-2.92.91-4.2a4.4,4.4,0,0,0,.77-3c-1.37.78-2.65,1.56-4,2.24-.74.37-1.73.87-2.24-.17a1.81,1.81,0,0,1,1.1-2.46,29.55,29.55,0,0,1,3.16-1.13,1.64,1.64,0,0,0,1.27-1.67c-.09-.91-.92-.84-1.64-.85-1,0-1.29-.8-.67-1.67a10.56,10.56,0,0,1,1.14-1.18c.76-.79,1.66-1.44,1.65-2.75,0-.61.6-1.11,1-1.61a5.73,5.73,0,0,0,1.54-3.31c.14-1.93.49-2.19,2.52-1.81.46-1.33-.12-2.54-.56-3.72-.37-1-.48-1.38.87-1.49,1.08-.09,2-.4,2.48.89.07.17.34.59.6.31,1.7-1.87,4.16-1.2,6.21-1.89,2.77-.95,5.07-2.45,6-5.41.33-1,.9-.57,1.3-.24.87.74,1.12.47,1.38-.52A15,15,0,0,0,35,8.49a6.61,6.61,0,0,1,.12-1.79c.24-.72.38-1.86,1.42-1.66s.35,1.2.41,1.83a12.4,12.4,0,0,1,0,2.79c-.34,2.88,1.75,4.41,4.77,3.79,1.2-.25,2.34-.87,2.59,1.15.08.67,1,.89,1.74.92s.93-.35,1.21-1c.86-2.08,1.9-4.1,2.89-6.14.52-1.09,1.29-1.82,2.58-1.28.9.38,1,1.91.29,3.07s-1.88,2.18-2.34,3.63c-.39,1.23-.12,1.78,1.2,1.73C54.7,15.4,55.09,16,54.58,18.81Z"/><path class="cls-1" d="M9.58,14.06c-.23.39.46,1.17-.45,1.43-.71.2-1.15-.32-1.49-.8-1.15-1.6-2.57-3.1-2.35-5.33.07-.69.2-1.3.94-1.53s1,.35,1.29.83C8.57,10.29,9.69,11.89,9.58,14.06Z"/><path class="cls-1" d="M37.63,8.14a7.76,7.76,0,0,1,.78-3.77c.2-.47.45-.84,1.07-.73s.74.49.79,1c.2,1.89-.58,3.58-1.05,5.33-.12.47-.59.58-1.07.55-.72-.06-.48-.6-.51-1S37.63,8.71,37.63,8.14Z"/><path class="cls-1" d="M2,26.4c1.38,0,2.93,1.39,2.89,2.58A.94.94,0,0,1,4.11,30a5.85,5.85,0,0,1-3.9-1.65,1.16,1.16,0,0,1-.06-1.24A1.67,1.67,0,0,1,2,26.4Z"/><path class="cls-1" d="M23.53,11.88c-1.12.06-1.75-.4-1.74-1.61s1-2.71,2.17-2.59a2,2,0,0,1,1.71,2.07C25.59,10.84,25,12,23.53,11.88Z"/><path class="cls-1" d="M80.46,53.12a6.06,6.06,0,0,1-2.62-.32A1.6,1.6,0,0,1,77,51.52c0-.65.69-.23,1-.42,1-.58,2.14-.2,3.21-.28a1.61,1.61,0,0,1,1.88,1.58c.06,1.33-1.12.49-1.72.7A3,3,0,0,1,80.46,53.12Z"/><path class="cls-1" d="M3.09,37.93c-1,.06-2,0-2-1.3s.86-1.25,1.81-1.37a6.39,6.39,0,0,1,2.47.1c.35.08.89.15.95.71a1.06,1.06,0,0,1-.68,1C4.8,37.52,4,38.15,3.09,37.93Z"/><path class="cls-1" d="M71.83,58.39c-1,.07-1.86-.21-1.85-1.34s.82-1.6,2-1.64S74,56.25,74,57A1.83,1.83,0,0,1,71.83,58.39Z"/><path class="cls-1" d="M43.33,80.82c-1,.05-1.61-.33-1.72-1.14s1.61-2.18,2.86-2.11c.65,0,.73.52.75,1.05A2,2,0,0,1,43.33,80.82Z"/><path class="cls-1" d="M66.23,16.16c-.59-.25-1.61-.24-1.66-1.33A2,2,0,0,1,66.91,13c.75.09,1.26.46,1.07,1.37S67.67,16.24,66.23,16.16Z"/><path class="cls-1" d="M9.33,0C10,.07,11-.17,10.79.78s.09,2.36-1.51,2.15c-.73-.1-1.95.06-2-1.2S8.16,0,9.33,0Z"/><path class="cls-1" d="M71.85,34c-.4,0-.91.14-.89-.59A2.52,2.52,0,0,1,73.33,31c.62,0,1.4-.2,1.55.74S73.12,34,71.85,34Z"/><path class="cls-1" d="M3.87,20.87c-.74-.5-2.15.05-2.17-1.44,0-1,.87-1.25,1.6-1.23,1,0,2.08.29,2.22,1.44S4.54,20.53,3.87,20.87Z"/><path class="cls-1" d="M86.91,41.67c-.6.61-.15,1.77-1.33,1.87s-1.64-.78-1.71-1.67a1.75,1.75,0,0,1,1.63-1.73C86.42,40,86.36,41.14,86.91,41.67Z"/><path class="cls-1" d="M66.4,75.54c-.67-.24-1.25-.71-1-1.51s.14-2,1.56-1.78a1.38,1.38,0,0,1,1.24,1.51A1.79,1.79,0,0,1,66.4,75.54Z"/><path class="cls-1" d="M50.17,79.2c.32-.52-.16-1.76,1.22-1.65.74,0,1.56.17,1.72,1.12.09.55-1.59,1.86-2.27,1.78S50.15,79.87,50.17,79.2Z"/><path class="cls-1" d="M16.51,13.52c-.76-.22-1.7-.28-1.65-1.5,0-.72.26-1.21,1-1.11.94.12,1.79.49,1.73,1.64C17.59,13.1,17.46,13.82,16.51,13.52Z"/><path class="cls-1" d="M63.55,24.41c-.37-.15-1.12.38-1.18-.59,0-.76,1.17-2,1.95-1.8.58.17,1.32.86,1.24,1.38C65.4,24.31,64.46,24.44,63.55,24.41Z"/><path class="cls-1" d="M25.1,77.21c0,.93-1.18.92-2,1.27-.29.11-.67,0-.55-.49.25-1.08.53-2.11,1.95-2.11C25.18,75.88,25.08,76.35,25.1,77.21Z"/><path class="cls-1" d="M68.42,65.25c-.23-.11-1.07.48-1.06-.46s.66-1.3,1.54-1.1c.48.11,1.39-.47,1.33.59S69.47,65.47,68.42,65.25Z"/></g></g></svg>
