<svg xmlns="http://www.w3.org/2000/svg" viewBox="0 0 68.93 63.7"><defs><style>.cls-1{fill:linear-gradient(20deg, #a940ff, #7940ff);}</style></defs><title>Tâche 09</title><g id="Calque_2" data-name="Calque 2"><g id="Calque_1-2" data-name="Calque 1"><path class="cls-1" d="M44.33,8.78a7.41,7.41,0,0,1,3,2.21c1,1,1.71.89,2.44-.37A13.8,13.8,0,0,1,51.65,8a1.66,1.66,0,0,1,1.91-.52c.74.26.51,1,.53,1.58a2.13,2.13,0,0,1,0,1c-.55,1.12-1.2,2.19.5,2.93,1,.44,1.78,1.56,3.16,1.05a2.92,2.92,0,0,1,1.47,0c.64.12,1.33.49,1.44,1.09.16.85-.74,1-1.32,1.14s-1.22.13-1.44.6c-.36.77-.1,1.37.91,1.44.69.05,1.55-.35,2,.32,1.14,1.59,2,1,2.92-.19.72-.91,2.15-.49,3-1.4.15-.17.53,0,.58.34a3.51,3.51,0,0,0,.07.66c1,2.55.49,3.37-2.26,3.56a11.83,11.83,0,0,0-5.56,1.75,7.16,7.16,0,0,0,2.63,2.93,3.22,3.22,0,0,1,1.22,1.31c.43.82.48,1.36-.7,1.27-.51,0-1,0-1.25.55s.25.89.59,1.25c.65.68,1.39,1.44,2.38,1.09a1.3,1.3,0,0,1,1.85.71,1.42,1.42,0,0,1-.94,2c-2,.54-2.27,2.06-2.26,3.71,0,1.14-.94,1.48-1.48,2.15.6.29,1.06-.17,1.59-.21,1.18-.08,2.24.25,2.47,1.57s-.83,1.52-1.84,1.73c-1.28.27-2.42-.26-3.61-.47-.94-.17-2.18-.69-2.65.21-.64,1.25.33,2.11,1.55,2.55a1.88,1.88,0,0,1,1.32,2,1.47,1.47,0,0,1-.79,1.5c-.67.29-1-.41-1.25-.8a3.64,3.64,0,0,0-1.75-1.63,1.45,1.45,0,0,0-1.65.39,1.27,1.27,0,0,0,.13,1.65,13.88,13.88,0,0,0,2.52,2.78,1.53,1.53,0,0,1,.67,1.95,2.54,2.54,0,0,1-2,1.71,1.53,1.53,0,0,1-1.83-1,6.66,6.66,0,0,0-3.05-3.48c-2.14-1.08-4.09.17-4.53,2.9a3.5,3.5,0,0,1-3.22,3.26c-.57,0-1,.06-1.09-.8s.54-1.92-.83-2.14a2.93,2.93,0,0,0-3.09,1.66A3.84,3.84,0,0,0,38.15,59a2.06,2.06,0,0,1-.78,2.46,1.55,1.55,0,0,1-1.94-.13,2.09,2.09,0,0,1-.65-2.49c.35-1.26,1.12-2.38.9-3.83a1.49,1.49,0,0,0-1.21-1.34c-.62-.17-.89.45-1.17.92a9.89,9.89,0,0,1-1.25,2.09,1.91,1.91,0,0,1-2.27.36,1.21,1.21,0,0,1-.59-1.8.58.58,0,0,0-.18-.84c-.36-.3-.58,0-.84.19C26,56.17,26,56.16,24.39,54.17a2,2,0,0,0-.91-.61c-.95-.24-1.58-.53-1.81-1.73s-1.35-1.48-2.51-1.25c-.31.06-.61.23-.92.3-.84.18-1.74,1.33-2.49.3s.21-2,.66-3a5.1,5.1,0,0,1,.76-.86c-1,.1-1.85.23-2.67.24-2.08,0-2.68-.71-2.25-2.71s.17-2.35-1.94-2a12.54,12.54,0,0,1-3.72.41c-.5,0-1,0-1.25-.55a1.39,1.39,0,0,1,.45-1.48,3.41,3.41,0,0,1,3-1.28,2,2,0,0,0,2.32-1.07,2.18,2.18,0,0,0-.38-2.39c-.47-.65-1.18-.23-1.77-.05-.85.27-1.9,1.33-2.45-.08-.46-1.18.48-2.06,1.54-2.61a12.28,12.28,0,0,0,1.74-.87,1.29,1.29,0,0,0-.26-2.32,4.31,4.31,0,0,0-3.32-.33,10.6,10.6,0,0,1-4.19.49c-1-.05-1.92-.11-2-1.37s1-1.78,1.84-1.86a13,13,0,0,1,6.87.87c.88.43,1.13.3,1.28-.71.08-.57.16-1.16.24-1.75.15-1.13-.25-1.64-1.43-1.46a1.9,1.9,0,0,1-1-.06c-.78-.35-2.07-.36-1.82-1.66a2.05,2.05,0,0,1,2.35-1.58,3.47,3.47,0,0,1,1.53.51c.63.31,1,.1,1.33-.47.53-.9-.38-.62-.64-.83a2.26,2.26,0,0,1-.75-3c.55-1.3,1.53-1,2.45-.58,1.26.56,3.5-.09,4.07-1.34.33-.71.25-1.33-.76-1.6s-2.26-.15-3.3-.73a1.65,1.65,0,0,1-1-1.66A2.49,2.49,0,0,1,12.83,9.4c.69-.25,1.38.29,1.79.89a5.4,5.4,0,0,0,2,2.05c.75.35,1.45.7,2.22,0s.67-1.36.37-2.22C18.62,8.39,18.89,8,20.45,8c.65,0,1.06.11,1,.89,0,.47-.15,1.22.44,1.23s1-.59,1.19-1.21c.46-1.65.45-1.62,2.39-1.43.61,0,.87-.6,1.24-1,1.77-1.73,2-1.68,2.72.59.08.23.14.95.62.64,1-.68,1.28-.35,1.71.69s1.6.57,2.2,0a24.43,24.43,0,0,0,2.65-3.08A40.29,40.29,0,0,0,38.92,2a1.31,1.31,0,0,1,1.84-.48c.71.29.58,1.06.39,1.59A6.65,6.65,0,0,1,40,5.1c-1.25,1.47-1,2.2.87,2.73A20.36,20.36,0,0,0,43,8.2c.83.15.54-.5.55-.83a13.79,13.79,0,0,1,.33-3.73,3.51,3.51,0,0,1,.82-1.56c.72-.69,1.46-1.36,2.58-.79S48,3,47.75,3.61A10,10,0,0,1,44.33,8.78Z"/><path class="cls-1" d="M6,10.37c-.21,1-.25,1.92-1.57,1.92-1.12,0-1.8-.39-1.76-1.59,0-.94.1-1.92,1.34-2S5.69,9.39,6,10.37Z"/><path class="cls-1" d="M66.39,29.11c-.89,0-1.67-.18-2-.95s-.52-1.46.74-1.36A5.64,5.64,0,0,0,67,26.52a1.45,1.45,0,0,1,1.84.63c.28.68-.49,1.05-.92,1.41A1.94,1.94,0,0,1,66.39,29.11Z"/><path class="cls-1" d="M31.34,5.19c0-1.22.39-2,1.59-2.12.91-.09,1.09.52,1,1.27-.06.94-.12,1.89-1.38,2C31.67,6.42,31.26,6,31.34,5.19Z"/><path class="cls-1" d="M48.16,58a1.35,1.35,0,0,1-1.51,1.48A1.6,1.6,0,0,1,44.94,58c-.08-1,.79-1.25,1.7-1.23S48.23,56.82,48.16,58Z"/><path class="cls-1" d="M28,4.36a1.67,1.67,0,0,1-1.88-1.65c-.1-.78.89-.76,1.37-.81C28.79,1.78,28.78,3,29,3.74S28.41,4.29,28,4.36Z"/><path class="cls-1" d="M65.92,36c.69,0,1.53,0,1.67,1,.1.65-.29,1.13-1,1-.84-.23-2-.42-2.17-1.32C64.32,35.91,65.31,36.09,65.92,36Z"/><path class="cls-1" d="M31.18,0c.86.13,1.49-.12,1.46.69a1.27,1.27,0,0,1-1.3,1.35c-.57,0-1-.24-.95-.83S30.67-.1,31.18,0Z"/><path class="cls-1" d="M38.93,62.71c0-.72.12-1.23.92-1.27s1,.62,1,1.16c0,.82-.78,1-1.36,1.08C38.67,63.81,39,63.05,38.93,62.71Z"/></g></g></svg>
