<svg xmlns="http://www.w3.org/2000/svg" viewBox="0 0 85.03 76.49"><defs><style>.cls-1{fill:#76be62;}</style></defs><title>Tâche 12</title><g id="Calque_2" data-name="Calque 2"><g id="Calque_1-2" data-name="Calque 1"><path class="cls-1" d="M83.17,32.58a38.28,38.28,0,0,0-5.79-1.34c-3.93-.75-7-2.72-6.78-7.73a5,5,0,0,0-.29-1.91A7.43,7.43,0,0,1,71.22,15c1.66-2.68,4.46-4,7-5.65s5.06-3.08,6.34-6A2.54,2.54,0,0,0,84.4.57,2.47,2.47,0,0,0,81.93.11a5.85,5.85,0,0,0-4,3,3.11,3.11,0,0,1-2.62,1.85A3.79,3.79,0,0,0,72.1,7.06,5.07,5.07,0,0,1,68.62,10c-.21,0-.43.18-.63.14-1.71-.33-3.27.23-4.92.5a34.06,34.06,0,0,1-8.15.5C52.6,10.93,50,9,49.88,7c-.12-1.4-.6-2.77-.39-4.21S49.06,1.35,48,1.92a3.81,3.81,0,0,0-1.54,2.3c-.23.58-.07,2.59-1.67.81-.39-.44-1.16-.24-1.8.15a32.77,32.77,0,0,0-2.58,2.23A3.65,3.65,0,0,0,40,6.73c-.78-.73-1.6-1.84-2.74-.92s-.51,1.92.3,2.79c.25.27.37.68.65.91,1.05.87.4,1.18-.4,1.67-1.11.69-2.43.36-3.55.91-1.28.63-2,.26-2.34-1.17a3.44,3.44,0,0,1-.08-2.05C32.16,7.93,32,7.65,31,8c-1.77.54-2,1.34-1.35,3.75.26.93,1.22,2.25.11,2.88-1.44.81-2-.85-2.66-1.73a3.56,3.56,0,0,1-.68-1.09c-.2-.63-.78-.71-1.24-.94a1.1,1.1,0,0,0-.92.07c-.31.21-.1.56,0,.88a6.94,6.94,0,0,0,1.59,2.57c1.55,1.66,1.55,2.35.06,4a3.54,3.54,0,0,0-1.07,1.95c-.12,3.64-3.14,5.91-4.12,9.12-.18.59-.83.85-1.38,1.08a30.2,30.2,0,0,1-15.26,1.8,5.79,5.79,0,0,0-3,.21c-.47.2-.93.24-1,.86a1.33,1.33,0,0,0,.74,1.36,4.22,4.22,0,0,0,3.86.64,20.78,20.78,0,0,1,10.2-1.54,25.72,25.72,0,0,1,5,1.09c.73.26,1.57.9,1.57,1.72s-.86,1.45-1.65,1.84c-.52.25-1.13.34-1.66.58a1.42,1.42,0,0,0-.84,1.85c.28.81,1.08.61,1.71.48.41-.09.76-.46,1.17-.55a1.5,1.5,0,0,1,2,1C22.44,43,21.32,43,20.83,43c-1.31.09-2,1-2.85,1.72a1.81,1.81,0,0,0-.38,2.12c.33.88,1.24.53,1.9.47s1-.46,1.5-.53c1-.13,2.11-.44,2.17,1.3,0,1,.82,1.72,1.81,2.27,2.68,1.5,2.75,3.6.31,5.48-1.06.81-2.31,1.36-3.44,2.09a3.38,3.38,0,0,0-1.21,4c.74,1.6,2,.85,3.08.61a6.09,6.09,0,0,0,4.64-5.17c.06-.65.37-1.17.84-1.23s.68.52.87,1c.34.93.59,2.4,1.69,2.33,2-.12,1.23.94,1,1.8a4.52,4.52,0,0,0,0,2.1C33.1,64.8,34,65,35.07,64a2.43,2.43,0,0,0,.61-1.28c.21-.81.26-1.86,1.44-2.08.31.57.05,1.14.18,1.64.25,1-.2,2.33.54,2.77,1,.58,1.84-.58,2.73-1.07a.14.14,0,0,0,0-.06h0a.36.36,0,0,1,0-.07c0-.91-.33-1.92.93-2.55a7.58,7.58,0,0,1-.9,2.51l0,.14,0,0a21.34,21.34,0,0,1-1.51,3.3c-1,2.47-2.36,4.86-2.11,7.69,0,.57.15,1.23.62,1.39a1.76,1.76,0,0,0,1.86-.24,4.7,4.7,0,0,0,1.45-1.93,27.6,27.6,0,0,0,1.36-6,6.11,6.11,0,0,1,2.37-4.6c.61-.48.88-.4,1.25.21.52.87.25,1.81.34,2.72,0,.52-.28,1.21.23,1.53s1.14,0,1.55-.53c.09-.12.34-.27.38-.24,1.64,1.3,1.84-.46,2.29-1.2a15.14,15.14,0,0,0,1.14-3c.62-1.78,1.11-2,2.69-1a3.67,3.67,0,0,0,3.8.48c2.42-1.23,4.62-2.65,6-5.13,1.26-2.2,1.42-2.14,3.45-.55a4.33,4.33,0,0,0,.69.41c1.26.62,1.8.29,1.81-1.13a10.92,10.92,0,0,0-.16-1.28c-.23-2-1.22-3.83-.67-5.88.82-3,3.43-4,5.9-5.14,1.31-.58,2.78-.79,4.13-1.28S81,40.93,80,40.24c-1.44-1-1-1.76-.21-2.77.16-.2.5-.49.15-1H78.74c-.61,0-1.42-.09-1.43-.7,0-.8.86-.58,1.43-.62a8.8,8.8,0,0,1,3.32.61c1,.33,2.89-.59,3-1.41C85.14,33.1,84.05,32.89,83.17,32.58Z"/></g></g></svg>