<svg xmlns="http://www.w3.org/2000/svg" viewBox="0 0 90.38 75.54"><defs><style>.cls-1{fill:#76be62;}</style></defs><title>Tâche 15</title><g id="Calque_2" data-name="Calque 2"><g id="Calque_1-2" data-name="Calque 1"><path class="cls-1" d="M72.85,0a2.56,2.56,0,0,1,2.68,2.26,2.64,2.64,0,0,1-2.85,2.68,2.55,2.55,0,0,1-2.74-2.42C69.91,1,71.1,0,72.85,0Z"/><path class="cls-1" d="M80.88,14.85c1.28-.1,2,.4,1.93,1.77s-.72,2.19-2.37,2.18-2.3-.59-2.26-2.06C78.22,15.48,79.16,14.83,80.88,14.85Z"/><path class="cls-1" d="M21.49,27.37c-.46,0-1,.12-1-.66a.87.87,0,0,1,1-1,.86.86,0,0,1,.94.88C22.48,27.34,22,27.41,21.49,27.37Z"/><path class="cls-1" d="M36.94,9.45c-.22.48-.24,1.12-1,1.09-.41,0-.93.12-1-.57s.27-1.05,1-1.05C36.34,8.92,36.86,8.77,36.94,9.45Z"/><path class="cls-1" d="M80.48,50.68c0,.67-.23,1.06-.83,1.07a.71.71,0,0,1-.77-.66c-.1-.68.52-.74.92-.89A.46.46,0,0,1,80.48,50.68Z"/><path class="cls-1" d="M50.17,67.68c.51-.06.63.22.61.58s.18.93-.48,1c-.44,0-.49-.34-.47-.67S49.7,67.77,50.17,67.68Z"/><path class="cls-1" d="M51.47,2.29c-.27,0-.66,0-.57-.37s.17-.91.76-.9c.35,0,.43.26.45.56C52.13,2,52,2.33,51.47,2.29Z"/><path class="cls-1" d="M63.21,16.32a.69.69,0,0,1-.74.48c-.23,0-.46-.15-.37-.38a1,1,0,0,1,.53-.51C62.92,15.81,63.07,16.1,63.21,16.32Z"/><path class="cls-1" d="M56.06,57.74v-.05l0-.07s0,.08,0,.12h0v0Z"/><path class="cls-1" d="M56.09,57.72l0,0h0Z"/><path class="cls-1" d="M88.76,27c-1.29-.19-2.28.66-3.44.87-2.93.54-5.88.95-8.82,1.45s-5.53.18-7.86-1.92a5,5,0,0,0-3.52-1.07c-.65,0-1.39-.07-1.44-1a4.2,4.2,0,0,1,1.1-3.62,32.09,32.09,0,0,0,3.1-3.18c2.33-2.87,4.4-6,7.66-8a4.52,4.52,0,0,0,1.67-1.79c.28-.55.56-1.13,0-1.66s-1-.25-1.51,0A6.62,6.62,0,0,0,72.9,9.56a8.39,8.39,0,0,1-2.45,2.37c-2.25,1.32-3.22,3.92-5.35,5.37-.17.12-.14.52-.24.77-1,2.37-2.27,2.55-3.85.52a3.31,3.31,0,0,1-.61-1.14,7.6,7.6,0,0,1,1.79-7.92,1.91,1.91,0,0,0,.13-2.67c-.59-.67-1.53-.07-2,.4a3.4,3.4,0,0,0-1,2.2c-.07,1.08-.59,1.63-1.82,1.46-2.12-.3-4.1.07-5.28,2.08-.47.8-1,1.54-1.53,2.3-.71,1.06-2.88,1.64-3.82,1-1.39-.9-1.18-2.08-.62-3.45.68-1.69,1.59-3.33,1.56-5.27,0-1.26-.41-2.27-1.73-2.29s-1.65,1-1.58,2.2a15.26,15.26,0,0,1-1.18,6.19c-.53,1.45-1.91,2.27-2.25,3.73-.29,1.22-1.34,1.82-2,2.7s-1.74-.41-2.27.15.07,1.72-.89,2.32c-3.27,2-6.51,2.92-10.27,1A89.26,89.26,0,0,1,4.75,9.22a2.81,2.81,0,0,0-3.12-.78C1,8.69,0,8.56,0,9.69s.65,1.45,1.38,1.85A6.29,6.29,0,0,0,2.59,12a12.72,12.72,0,0,1,3.62,1.83c3.87,2.92,8.28,5,12.34,7.57A11.62,11.62,0,0,1,22.43,25a4.56,4.56,0,0,0,3.66,2.39,2.3,2.3,0,0,1,2.4,2.3,5.53,5.53,0,0,1-.32,3.8,2.68,2.68,0,0,0-.05,2.08c.64,1.49-.36,1.9-1.33,2.26a7.26,7.26,0,0,1-2.23.4c-2.51.15-5,.13-7.53.38a13.22,13.22,0,0,0-5.34,1.25c-.83.48-2.06,1.09-1.64,2.11s1.7.65,2.62.3a12.16,12.16,0,0,1,5.55-1.08,27.17,27.17,0,0,0,7.63-.67,35.71,35.71,0,0,0,3.6-1c.66-.2,1.14.06.71.64-1.16,1.55-2,3.48-3.72,4.43A82.23,82.23,0,0,1,18,49.21c-.78.33-1.64.87-1.33,1.76s1.3.88,2.15.81a3.06,3.06,0,0,0,1.6-.76,26.88,26.88,0,0,1,8.92-4.65c2.28-.62,2.66-.57,3.36,1.67,1,3.17,3.06,4.3,6.15,4.07.82-.06,1.54.22,1.69,1,.45,2.2,2.1,4.2.89,6.71a3.36,3.36,0,0,0,.16,3.31,1.67,1.67,0,0,0,2,.73,2.91,2.91,0,0,0,2.26-2.48,11.14,11.14,0,0,0,0-2.31c-.1-1.4.64-2.09,1.93-2.49a5.33,5.33,0,0,1,.06.71c-.15,1.67,0,3.18,1.75,4a1.3,1.3,0,0,1,.57.59c.3.65,1.42,1.34-.2,2-.7.26-.82,1.52-.08,1.66,1.09.21,1,1,1.1,1.53a32.3,32.3,0,0,1,1.19,6.72c0,.65-.07,1.62,1,1.77,1.22.17,1.65-.76,1.89-1.66a3.69,3.69,0,0,0-.15-2.09A16.5,16.5,0,0,1,54.07,69c-.45-3.21-.69-6.47-1.76-9.57-.33-1-.24-1.13.2-1.08s1.39-.07,1.28,1a9.83,9.83,0,0,0,0,2.3A1.41,1.41,0,0,0,55.24,63c.83,0,1.17-.67,1.17-1.5a13.22,13.22,0,0,0-.32-3.71h0s0-.08,0-.12c-.53-.82-.88-1.67,0-2.64,0,.9,0,1.8,0,2.7l0,0v0a2,2,0,0,0,2-1.41c.58-1.17,1.1-2.37,1.67-3.54.28-.59.84-1.43,1.33-1.19s1.55-.58,1.72.79c.08.67,1,.49,1.42,0,1.19-1.34,2.66-1.6,4.4-1.63s3.83-.32,4.55-2.26c1.2-3.29,2.24-6.62-1.59-9.41A1.34,1.34,0,0,1,71,37.5c.63-1.61-.3-2-1.57-2.19-.4-.06-.8-.08-1-.46s.22-.68.46-1a6.9,6.9,0,0,1,3-1.94c4.23-1.59,8.7-1.71,13.1-2.27,1.35-.17,2.72-.23,4-.48.6-.12,1.51-.19,1.39-1.26S89.44,27.14,88.76,27Z"/></g></g></svg>